<?xml version="1.0" encoding="utf-8"?>
<!-- Generator: Adobe Illustrator 23.0.6, SVG Export Plug-In . SVG Version: 6.00 Build 0)  -->
<svg version="1.1" id="Слой_1" xmlns="http://www.w3.org/2000/svg" xmlns:xlink="http://www.w3.org/1999/xlink" x="0px" y="0px"
	 viewBox="0 0 100 100" style="enable-background:new 0 0 100 100;" xml:space="preserve">
<style type="text/css">
	.st0{fill:#E76D10;}
	.st1{fill:#FFFFFF;}
</style>
<g id="Слой-2">
	<g>
		<path class="st0" d="M0.5,51.2C4.6,29.4,40.5-0.3,49.3,0c10.4,0.3,23.2,6,36.9,25.5c21.7,31,15.1,55.9-0.6,67.3
			c-12.3,8.9-29,10.7-49.4-1.4C23,83.5,28.3,86.1,18,79.2C2.8,69.1-1.7,63.2,0.5,51.2z"/>
		<g>
			<path class="st1" d="M29.8,70.4H22c-1.1,0-1.9-0.3-2.4-0.8c-0.5-0.5-0.7-1.4-0.7-2.5V47c0-1.2,0.2-2,0.7-2.5
				c0.5-0.5,1.3-0.8,2.4-0.8h8.3c1.2,0,2.3,0.1,3.2,0.2c0.9,0.2,1.7,0.5,2.4,0.9c0.6,0.4,1.1,0.9,1.6,1.4c0.5,0.6,0.8,1.2,1.1,1.9
				c0.2,0.7,0.4,1.4,0.4,2.2c0,2.7-1.3,4.6-3.8,5.9c3.3,1.1,5,3.3,5,6.5c0,1.5-0.4,2.8-1.1,4c-0.7,1.2-1.7,2.1-3,2.7
				c-0.8,0.3-1.7,0.6-2.7,0.7C32.3,70.4,31.2,70.4,29.8,70.4z M29.4,58.6h-5.4v7.8h5.5c3.5,0,5.2-1.3,5.2-4c0-1.4-0.5-2.3-1.4-2.9
				C32.6,58.9,31.2,58.6,29.4,58.6z M24.1,47.7v6.9h4.7c1.3,0,2.3-0.1,3-0.4c0.7-0.3,1.2-0.7,1.6-1.5c0.3-0.5,0.4-1.1,0.4-1.7
				c0-1.4-0.5-2.2-1.4-2.7c-0.9-0.4-2.3-0.7-4.2-0.7H24.1z"/>
			<path class="st1" d="M47.7,59h-1.8v8.6c0,1.1-0.2,2-0.7,2.5c-0.5,0.5-1.1,0.8-1.9,0.8c-0.8,0-1.5-0.3-1.9-0.8
				c-0.5-0.6-0.7-1.4-0.7-2.5V47c0-1.2,0.2-2,0.7-2.5c0.5-0.5,1.3-0.8,2.4-0.8h8.4c1.2,0,2.1,0.1,3,0.2c0.8,0.1,1.6,0.3,2.2,0.6
				c0.8,0.4,1.5,0.9,2.1,1.5c0.6,0.7,1.1,1.4,1.4,2.3c0.3,0.9,0.5,1.8,0.5,2.8c0,2-0.5,3.6-1.6,4.8c-1.1,1.2-2.7,2-4.9,2.5
				c0.9,0.5,1.8,1.3,2.6,2.3c0.8,1,1.6,2.1,2.2,3.2c0.7,1.1,1.2,2.1,1.5,3c0.4,0.9,0.5,1.5,0.5,1.9c0,0.4-0.1,0.7-0.3,1
				c-0.2,0.3-0.5,0.6-0.9,0.8c-0.4,0.2-0.8,0.3-1.3,0.3c-0.6,0-1.1-0.1-1.5-0.4c-0.4-0.3-0.7-0.6-1-1.1s-0.7-1.1-1.2-1.9l-2.1-3.6
				c-0.7-1.3-1.4-2.3-2-3c-0.6-0.7-1.2-1.2-1.8-1.4C49.4,59.1,48.6,59,47.7,59z M50.7,47.7h-4.8v7.4h4.6c1.2,0,2.3-0.1,3.1-0.3
				c0.8-0.2,1.5-0.6,1.9-1.1c0.4-0.5,0.7-1.3,0.7-2.2c0-0.7-0.2-1.4-0.5-2c-0.4-0.6-0.9-1-1.5-1.3C53.6,47.9,52.4,47.7,50.7,47.7z"
				/>
			<path class="st1" d="M69.3,46.5l9.9,15.8V46.3c0-1,0.2-1.8,0.6-2.3c0.4-0.5,1-0.8,1.7-0.8c0.7,0,1.3,0.3,1.8,0.8
				c0.4,0.5,0.6,1.3,0.6,2.3v21c0,2.3-0.9,3.5-2.8,3.5c-0.5,0-0.9-0.1-1.3-0.2c-0.4-0.1-0.7-0.4-1-0.7c-0.3-0.3-0.6-0.7-0.9-1.1
				c-0.3-0.4-0.6-0.8-0.8-1.3l-9.7-15.6v15.7c0,1-0.2,1.8-0.7,2.3c-0.5,0.5-1,0.8-1.7,0.8c-0.7,0-1.3-0.3-1.8-0.8
				c-0.4-0.5-0.7-1.3-0.7-2.3V47.1c0-0.9,0.1-1.6,0.3-2.1c0.2-0.5,0.6-1,1.1-1.3c0.5-0.3,1.1-0.5,1.7-0.5c0.5,0,0.9,0.1,1.2,0.2
				c0.3,0.2,0.6,0.4,0.9,0.6c0.2,0.3,0.5,0.6,0.8,1C68.8,45.6,69.1,46,69.3,46.5z"/>
		</g>
	</g>
</g>
</svg>
